<svg xmlns="http://www.w3.org/2000/svg" xmlns:xlink="http://www.w3.org/1999/xlink" width="500" zoomAndPan="magnify" viewBox="0 0 375 374.999991" height="500" preserveAspectRatio="xMidYMid meet" version="1.0"><defs><g/><clipPath id="b61314114f"><path d="M 186 135.105469 L 209.449219 135.105469 L 209.449219 145.839844 L 186 145.839844 Z M 186 135.105469 " clip-rule="nonzero"/></clipPath><clipPath id="d0db5d7b74"><path d="M 198.738281 139.632812 C 198.605469 140.4375 198.660156 141.285156 198.925781 142.117188 C 199.835938 144.929688 202.867188 146.476562 205.695312 145.570312 C 208.523438 144.667969 210.078125 141.652344 209.167969 138.839844 C 208.257812 136.027344 205.226562 134.476562 202.398438 135.382812 C 200.707031 135.925781 199.472656 137.222656 198.945312 138.78125 C 196.777344 138.878906 194.496094 139.4375 192.707031 139.996094 C 191.933594 138.488281 190.152344 137.714844 188.476562 138.25 C 186.617188 138.847656 185.597656 140.828125 186.195312 142.679688 C 186.792969 144.527344 188.785156 145.546875 190.644531 144.949219 C 192.414062 144.382812 193.421875 142.5625 193.003906 140.796875 C 194.671875 140.277344 196.757812 139.757812 198.738281 139.632812 Z M 198.738281 139.632812 " clip-rule="nonzero"/></clipPath><clipPath id="137f7fbca5"><path d="M 198.738281 139.632812 C 198.605469 140.4375 198.660156 141.285156 198.925781 142.117188 C 199.835938 144.929688 202.867188 146.476562 205.695312 145.570312 C 208.523438 144.667969 210.078125 141.652344 209.167969 138.839844 C 208.257812 136.027344 205.226562 134.476562 202.398438 135.382812 C 200.707031 135.925781 199.472656 137.222656 198.945312 138.78125 C 196.777344 138.878906 194.496094 139.4375 192.707031 139.996094 C 191.933594 138.488281 190.152344 137.714844 188.476562 138.25 C 186.617188 138.847656 185.597656 140.828125 186.195312 142.679688 C 186.792969 144.527344 188.785156 145.546875 190.644531 144.949219 C 192.414062 144.382812 193.421875 142.5625 193.003906 140.796875 C 194.671875 140.277344 196.757812 139.757812 198.738281 139.632812 " clip-rule="nonzero"/></clipPath><clipPath id="67441e2b47"><path d="M 185.605469 134.039062 L 185.378906 146.472656 L 210.070312 146.917969 L 210.292969 134.480469 Z M 185.605469 134.039062 " clip-rule="nonzero"/></clipPath><radialGradient gradientTransform="matrix(1.002343, 0.0179483, -0.0180384, 0.997333, 158.323106, 151.526976)" gradientUnits="userSpaceOnUse" r="43.188309" cx="0" id="7e58479157" cy="0" fx="0" fy="0"><stop stop-opacity="1" stop-color="rgb(88.438416%, 11.759949%, 58.039856%)" offset="0"/><stop stop-opacity="1" stop-color="rgb(88.052368%, 11.759949%, 58.039856%)" offset="0.00390625"/><stop stop-opacity="1" stop-color="rgb(87.8479%, 11.94458%, 58.039856%)" offset="0.0078125"/><stop stop-opacity="1" stop-color="rgb(87.661743%, 12.14447%, 58.039856%)" offset="0.0117188"/><stop stop-opacity="1" stop-color="rgb(87.295532%, 12.159729%, 58.039856%)" offset="0.015625"/><stop stop-opacity="1" stop-color="rgb(87.060547%, 12.159729%, 58.039856%)" offset="0.0195312"/><stop stop-opacity="1" stop-color="rgb(86.825562%, 12.159729%, 58.039856%)" offset="0.0234375"/><stop stop-opacity="1" stop-color="rgb(86.439514%, 12.159729%, 58.039856%)" offset="0.0273438"/><stop stop-opacity="1" stop-color="rgb(86.061096%, 12.159729%, 58.032227%)" offset="0.03125"/><stop stop-opacity="1" stop-color="rgb(85.876465%, 12.159729%, 57.836914%)" offset="0.0351562"/><stop stop-opacity="1" stop-color="rgb(85.682678%, 12.159729%, 57.649231%)" offset="0.0390625"/><stop stop-opacity="1" stop-color="rgb(85.301208%, 12.159729%, 57.649231%)" offset="0.0429688"/><stop stop-opacity="1" stop-color="rgb(85.105896%, 12.159729%, 57.649231%)" offset="0.046875"/><stop stop-opacity="1" stop-color="rgb(84.919739%, 12.159729%, 57.649231%)" offset="0.0507812"/><stop stop-opacity="1" stop-color="rgb(84.544373%, 12.159729%, 57.649231%)" offset="0.0546875"/><stop stop-opacity="1" stop-color="rgb(84.329224%, 12.159729%, 57.649231%)" offset="0.0585938"/><stop stop-opacity="1" stop-color="rgb(84.094238%, 12.179565%, 57.649231%)" offset="0.0625"/><stop stop-opacity="1" stop-color="rgb(83.688354%, 12.373352%, 57.649231%)" offset="0.0664062"/><stop stop-opacity="1" stop-color="rgb(83.319092%, 12.548828%, 57.649231%)" offset="0.0703125"/><stop stop-opacity="1" stop-color="rgb(83.132935%, 12.548828%, 57.649231%)" offset="0.0742188"/><stop stop-opacity="1" stop-color="rgb(82.936096%, 12.548828%, 57.649231%)" offset="0.078125"/><stop stop-opacity="1" stop-color="rgb(82.550049%, 12.548828%, 57.649231%)" offset="0.0820312"/><stop stop-opacity="1" stop-color="rgb(82.351685%, 12.548828%, 57.649231%)" offset="0.0859375"/><stop stop-opacity="1" stop-color="rgb(82.165527%, 12.548828%, 57.649231%)" offset="0.0898438"/><stop stop-opacity="1" stop-color="rgb(81.793213%, 12.548828%, 57.649231%)" offset="0.09375"/><stop stop-opacity="1" stop-color="rgb(81.585693%, 12.548828%, 57.649231%)" offset="0.0976562"/><stop stop-opacity="1" stop-color="rgb(81.350708%, 12.548828%, 57.649231%)" offset="0.101562"/><stop stop-opacity="1" stop-color="rgb(80.937195%, 12.548828%, 57.649231%)" offset="0.105469"/><stop stop-opacity="1" stop-color="rgb(80.566406%, 12.548828%, 57.649231%)" offset="0.109375"/><stop stop-opacity="1" stop-color="rgb(80.380249%, 12.548828%, 57.649231%)" offset="0.113281"/><stop stop-opacity="1" stop-color="rgb(80.180359%, 12.553406%, 57.649231%)" offset="0.117188"/><stop stop-opacity="1" stop-color="rgb(79.798889%, 12.748718%, 57.649231%)" offset="0.121094"/><stop stop-opacity="1" stop-color="rgb(79.60968%, 12.939453%, 57.649231%)" offset="0.125"/><stop stop-opacity="1" stop-color="rgb(79.423523%, 12.939453%, 57.649231%)" offset="0.128906"/><stop stop-opacity="1" stop-color="rgb(79.042053%, 12.939453%, 57.649231%)" offset="0.132812"/><stop stop-opacity="1" stop-color="rgb(78.656006%, 12.939453%, 57.649231%)" offset="0.136719"/><stop stop-opacity="1" stop-color="rgb(78.44696%, 12.939453%, 57.649231%)" offset="0.140625"/><stop stop-opacity="1" stop-color="rgb(78.211975%, 12.939453%, 57.649231%)" offset="0.144531"/><stop stop-opacity="1" stop-color="rgb(77.822876%, 12.939453%, 57.649231%)" offset="0.148438"/><stop stop-opacity="1" stop-color="rgb(77.636719%, 12.939453%, 57.649231%)" offset="0.152344"/><stop stop-opacity="1" stop-color="rgb(77.429199%, 12.939453%, 57.649231%)" offset="0.15625"/><stop stop-opacity="1" stop-color="rgb(77.043152%, 12.939453%, 57.649231%)" offset="0.160156"/><stop stop-opacity="1" stop-color="rgb(76.661682%, 12.939453%, 57.649231%)" offset="0.164062"/><stop stop-opacity="1" stop-color="rgb(76.470947%, 12.939453%, 57.649231%)" offset="0.167969"/><stop stop-opacity="1" stop-color="rgb(76.28479%, 12.939453%, 57.649231%)" offset="0.171875"/><stop stop-opacity="1" stop-color="rgb(75.909424%, 13.117981%, 57.649231%)" offset="0.175781"/><stop stop-opacity="1" stop-color="rgb(75.704956%, 13.313293%, 57.649231%)" offset="0.179688"/><stop stop-opacity="1" stop-color="rgb(75.514221%, 13.328552%, 57.649231%)" offset="0.183594"/><stop stop-opacity="1" stop-color="rgb(75.119019%, 13.328552%, 57.649231%)" offset="0.1875"/><stop stop-opacity="1" stop-color="rgb(74.884033%, 13.328552%, 57.649231%)" offset="0.191406"/><stop stop-opacity="1" stop-color="rgb(74.67804%, 13.328552%, 57.649231%)" offset="0.195312"/><stop stop-opacity="1" stop-color="rgb(74.29657%, 13.328552%, 57.649231%)" offset="0.199219"/><stop stop-opacity="1" stop-color="rgb(73.918152%, 13.328552%, 57.649231%)" offset="0.203125"/><stop stop-opacity="1" stop-color="rgb(73.728943%, 13.328552%, 57.649231%)" offset="0.207031"/><stop stop-opacity="1" stop-color="rgb(73.536682%, 13.328552%, 57.649231%)" offset="0.210938"/><stop stop-opacity="1" stop-color="rgb(73.153687%, 13.328552%, 57.649231%)" offset="0.214844"/><stop stop-opacity="1" stop-color="rgb(72.950745%, 13.328552%, 57.649231%)" offset="0.21875"/><stop stop-opacity="1" stop-color="rgb(72.764587%, 13.328552%, 57.649231%)" offset="0.222656"/><stop stop-opacity="1" stop-color="rgb(72.3526%, 13.528442%, 57.649231%)" offset="0.226562"/><stop stop-opacity="1" stop-color="rgb(71.936035%, 13.729858%, 57.649231%)" offset="0.230469"/><stop stop-opacity="1" stop-color="rgb(71.7453%, 13.729858%, 57.649231%)" offset="0.234375"/><stop stop-opacity="1" stop-color="rgb(71.540833%, 13.729858%, 57.649231%)" offset="0.238281"/><stop stop-opacity="1" stop-color="rgb(71.165466%, 13.729858%, 57.649231%)" offset="0.242188"/><stop stop-opacity="1" stop-color="rgb(70.979309%, 13.729858%, 57.649231%)" offset="0.246094"/><stop stop-opacity="1" stop-color="rgb(70.788574%, 13.729858%, 57.649231%)" offset="0.25"/><stop stop-opacity="1" stop-color="rgb(70.407104%, 13.729858%, 57.649231%)" offset="0.253906"/><stop stop-opacity="1" stop-color="rgb(70.027161%, 13.729858%, 57.649231%)" offset="0.257812"/><stop stop-opacity="1" stop-color="rgb(69.645691%, 13.729858%, 57.649231%)" offset="0.265625"/><stop stop-opacity="1" stop-color="rgb(69.236755%, 13.729858%, 57.649231%)" offset="0.269531"/><stop stop-opacity="1" stop-color="rgb(69.00177%, 13.746643%, 57.649231%)" offset="0.273438"/><stop stop-opacity="1" stop-color="rgb(68.79425%, 13.94043%, 57.649231%)" offset="0.277344"/><stop stop-opacity="1" stop-color="rgb(68.418884%, 14.118958%, 57.649231%)" offset="0.28125"/><stop stop-opacity="1" stop-color="rgb(68.037415%, 14.118958%, 57.649231%)" offset="0.289062"/><stop stop-opacity="1" stop-color="rgb(67.651367%, 14.118958%, 57.649231%)" offset="0.292969"/><stop stop-opacity="1" stop-color="rgb(67.271423%, 14.118958%, 57.649231%)" offset="0.296875"/><stop stop-opacity="1" stop-color="rgb(66.894531%, 14.118958%, 57.649231%)" offset="0.300781"/><stop stop-opacity="1" stop-color="rgb(66.513062%, 14.118958%, 57.649231%)" offset="0.308594"/><stop stop-opacity="1" stop-color="rgb(66.273499%, 14.118958%, 57.649231%)" offset="0.3125"/><stop stop-opacity="1" stop-color="rgb(66.038513%, 14.134216%, 57.649231%)" offset="0.316406"/><stop stop-opacity="1" stop-color="rgb(65.658569%, 14.329529%, 57.649231%)" offset="0.320312"/><stop stop-opacity="1" stop-color="rgb(65.281677%, 14.509583%, 57.649231%)" offset="0.324219"/><stop stop-opacity="1" stop-color="rgb(64.904785%, 14.509583%, 57.649231%)" offset="0.332031"/><stop stop-opacity="1" stop-color="rgb(64.520264%, 14.509583%, 57.649231%)" offset="0.335938"/><stop stop-opacity="1" stop-color="rgb(64.138794%, 14.509583%, 57.649231%)" offset="0.339844"/><stop stop-opacity="1" stop-color="rgb(63.761902%, 14.509583%, 57.649231%)" offset="0.347656"/><stop stop-opacity="1" stop-color="rgb(63.526917%, 14.509583%, 57.449341%)" offset="0.351562"/><stop stop-opacity="1" stop-color="rgb(63.293457%, 14.509583%, 57.249451%)" offset="0.355469"/><stop stop-opacity="1" stop-color="rgb(62.911987%, 14.509583%, 57.249451%)" offset="0.359375"/><stop stop-opacity="1" stop-color="rgb(62.530518%, 14.703369%, 57.249451%)" offset="0.363281"/><stop stop-opacity="1" stop-color="rgb(62.149048%, 14.898682%, 57.249451%)" offset="0.371094"/><stop stop-opacity="1" stop-color="rgb(61.764526%, 14.898682%, 57.249451%)" offset="0.375"/><stop stop-opacity="1" stop-color="rgb(61.387634%, 14.898682%, 57.249451%)" offset="0.382812"/><stop stop-opacity="1" stop-color="rgb(61.010742%, 14.898682%, 57.249451%)" offset="0.386719"/><stop stop-opacity="1" stop-color="rgb(60.626221%, 14.898682%, 57.249451%)" offset="0.390625"/><stop stop-opacity="1" stop-color="rgb(60.391235%, 14.898682%, 57.249451%)" offset="0.394531"/><stop stop-opacity="1" stop-color="rgb(60.15625%, 14.898682%, 57.249451%)" offset="0.398438"/><stop stop-opacity="1" stop-color="rgb(59.779358%, 14.906311%, 57.249451%)" offset="0.402344"/><stop stop-opacity="1" stop-color="rgb(59.403992%, 15.101624%, 57.249451%)" offset="0.410156"/><stop stop-opacity="1" stop-color="rgb(59.017944%, 15.289307%, 57.249451%)" offset="0.414062"/><stop stop-opacity="1" stop-color="rgb(58.631897%, 15.289307%, 57.249451%)" offset="0.417969"/><stop stop-opacity="1" stop-color="rgb(58.255005%, 15.289307%, 57.249451%)" offset="0.421875"/><stop stop-opacity="1" stop-color="rgb(57.879639%, 15.289307%, 57.249451%)" offset="0.429688"/><stop stop-opacity="1" stop-color="rgb(57.669067%, 15.289307%, 57.249451%)" offset="0.433594"/><stop stop-opacity="1" stop-color="rgb(57.429504%, 15.289307%, 57.249451%)" offset="0.4375"/><stop stop-opacity="1" stop-color="rgb(57.019043%, 15.289307%, 57.249451%)" offset="0.441406"/><stop stop-opacity="1" stop-color="rgb(56.642151%, 15.29541%, 57.249451%)" offset="0.445312"/><stop stop-opacity="1" stop-color="rgb(56.266785%, 15.4953%, 57.249451%)" offset="0.453125"/><stop stop-opacity="1" stop-color="rgb(55.882263%, 15.689087%, 57.249451%)" offset="0.457031"/><stop stop-opacity="1" stop-color="rgb(55.500793%, 15.689087%, 57.249451%)" offset="0.464844"/><stop stop-opacity="1" stop-color="rgb(55.123901%, 15.689087%, 57.249451%)" offset="0.46875"/><stop stop-opacity="1" stop-color="rgb(54.742432%, 15.689087%, 57.249451%)" offset="0.472656"/><stop stop-opacity="1" stop-color="rgb(54.507446%, 15.689087%, 57.249451%)" offset="0.476562"/><stop stop-opacity="1" stop-color="rgb(54.272461%, 15.689087%, 57.249451%)" offset="0.480469"/><stop stop-opacity="1" stop-color="rgb(53.897095%, 15.698242%, 57.249451%)" offset="0.484375"/><stop stop-opacity="1" stop-color="rgb(53.515625%, 15.893555%, 57.249451%)" offset="0.492188"/><stop stop-opacity="1" stop-color="rgb(53.129578%, 16.079712%, 57.249451%)" offset="0.496094"/><stop stop-opacity="1" stop-color="rgb(52.752686%, 16.079712%, 57.249451%)" offset="0.503906"/><stop stop-opacity="1" stop-color="rgb(52.377319%, 16.079712%, 57.249451%)" offset="0.507812"/><stop stop-opacity="1" stop-color="rgb(51.991272%, 16.079712%, 57.249451%)" offset="0.511719"/><stop stop-opacity="1" stop-color="rgb(51.777649%, 16.079712%, 57.249451%)" offset="0.515625"/><stop stop-opacity="1" stop-color="rgb(51.542664%, 16.079712%, 57.249451%)" offset="0.519531"/><stop stop-opacity="1" stop-color="rgb(51.152039%, 16.079712%, 57.249451%)" offset="0.523438"/><stop stop-opacity="1" stop-color="rgb(50.967407%, 16.091919%, 57.249451%)" offset="0.527344"/><stop stop-opacity="1" stop-color="rgb(50.764465%, 16.285706%, 57.249451%)" offset="0.53125"/><stop stop-opacity="1" stop-color="rgb(50.382996%, 16.468811%, 57.249451%)" offset="0.535156"/><stop stop-opacity="1" stop-color="rgb(49.996948%, 16.468811%, 57.249451%)" offset="0.539062"/><stop stop-opacity="1" stop-color="rgb(49.80011%, 16.468811%, 57.249451%)" offset="0.542969"/><stop stop-opacity="1" stop-color="rgb(49.613953%, 16.468811%, 57.249451%)" offset="0.546875"/><stop stop-opacity="1" stop-color="rgb(49.240112%, 16.468811%, 57.249451%)" offset="0.550781"/><stop stop-opacity="1" stop-color="rgb(49.034119%, 16.468811%, 57.249451%)" offset="0.554688"/><stop stop-opacity="1" stop-color="rgb(48.847961%, 16.468811%, 57.249451%)" offset="0.558594"/><stop stop-opacity="1" stop-color="rgb(48.4375%, 16.468811%, 57.249451%)" offset="0.5625"/><stop stop-opacity="1" stop-color="rgb(48.017883%, 16.48407%, 57.249451%)" offset="0.566406"/><stop stop-opacity="1" stop-color="rgb(47.828674%, 16.679382%, 57.249451%)" offset="0.570312"/><stop stop-opacity="1" stop-color="rgb(47.627258%, 16.859436%, 57.249451%)" offset="0.574219"/><stop stop-opacity="1" stop-color="rgb(47.247314%, 16.859436%, 57.249451%)" offset="0.578125"/><stop stop-opacity="1" stop-color="rgb(47.059631%, 16.859436%, 57.249451%)" offset="0.582031"/><stop stop-opacity="1" stop-color="rgb(46.871948%, 16.859436%, 57.249451%)" offset="0.585938"/><stop stop-opacity="1" stop-color="rgb(46.488953%, 16.859436%, 57.249451%)" offset="0.589844"/><stop stop-opacity="1" stop-color="rgb(46.102905%, 16.859436%, 57.249451%)" offset="0.59375"/><stop stop-opacity="1" stop-color="rgb(45.895386%, 16.859436%, 57.249451%)" offset="0.597656"/><stop stop-opacity="1" stop-color="rgb(45.6604%, 16.859436%, 57.249451%)" offset="0.601562"/><stop stop-opacity="1" stop-color="rgb(45.271301%, 16.877747%, 57.249451%)" offset="0.605469"/><stop stop-opacity="1" stop-color="rgb(45.085144%, 17.071533%, 57.249451%)" offset="0.609375"/><stop stop-opacity="1" stop-color="rgb(44.880676%, 17.248535%, 57.249451%)" offset="0.613281"/><stop stop-opacity="1" stop-color="rgb(44.494629%, 17.248535%, 57.249451%)" offset="0.617188"/><stop stop-opacity="1" stop-color="rgb(44.110107%, 17.248535%, 57.249451%)" offset="0.621094"/><stop stop-opacity="1" stop-color="rgb(43.919373%, 17.248535%, 57.249451%)" offset="0.625"/><stop stop-opacity="1" stop-color="rgb(43.733215%, 17.248535%, 57.249451%)" offset="0.628906"/><stop stop-opacity="1" stop-color="rgb(43.356323%, 17.248535%, 57.249451%)" offset="0.632812"/><stop stop-opacity="1" stop-color="rgb(42.980957%, 17.248535%, 57.249451%)" offset="0.636719"/><stop stop-opacity="1" stop-color="rgb(42.550659%, 17.448425%, 57.249451%)" offset="0.644531"/><stop stop-opacity="1" stop-color="rgb(42.120361%, 17.649841%, 57.249451%)" offset="0.648438"/><stop stop-opacity="1" stop-color="rgb(41.743469%, 17.649841%, 57.249451%)" offset="0.65625"/><stop stop-opacity="1" stop-color="rgb(41.366577%, 17.649841%, 57.249451%)" offset="0.660156"/><stop stop-opacity="1" stop-color="rgb(40.985107%, 17.649841%, 57.249451%)" offset="0.667969"/><stop stop-opacity="1" stop-color="rgb(40.600586%, 17.649841%, 57.249451%)" offset="0.671875"/><stop stop-opacity="1" stop-color="rgb(40.219116%, 17.649841%, 57.249451%)" offset="0.675781"/><stop stop-opacity="1" stop-color="rgb(39.84375%, 17.843628%, 57.249451%)" offset="0.679688"/><stop stop-opacity="1" stop-color="rgb(39.437866%, 18.03894%, 57.249451%)" offset="0.6875"/><stop stop-opacity="1" stop-color="rgb(39.202881%, 18.03894%, 57.249451%)" offset="0.691406"/><stop stop-opacity="1" stop-color="rgb(38.99231%, 18.03894%, 57.249451%)" offset="0.695312"/><stop stop-opacity="1" stop-color="rgb(38.607788%, 18.03894%, 57.249451%)" offset="0.699219"/><stop stop-opacity="1" stop-color="rgb(38.227844%, 18.03894%, 57.249451%)" offset="0.703125"/><stop stop-opacity="1" stop-color="rgb(37.850952%, 18.03894%, 57.249451%)" offset="0.710938"/><stop stop-opacity="1" stop-color="rgb(37.469482%, 18.222046%, 57.249451%)" offset="0.714844"/><stop stop-opacity="1" stop-color="rgb(37.088013%, 18.417358%, 57.249451%)" offset="0.71875"/><stop stop-opacity="1" stop-color="rgb(36.662292%, 18.429565%, 57.249451%)" offset="0.726562"/><stop stop-opacity="1" stop-color="rgb(36.238098%, 18.429565%, 57.249451%)" offset="0.730469"/><stop stop-opacity="1" stop-color="rgb(35.861206%, 18.429565%, 57.249451%)" offset="0.738281"/><stop stop-opacity="1" stop-color="rgb(35.479736%, 18.429565%, 57.249451%)" offset="0.742188"/><stop stop-opacity="1" stop-color="rgb(35.098267%, 18.618774%, 57.249451%)" offset="0.75"/><stop stop-opacity="1" stop-color="rgb(34.718323%, 18.814087%, 57.249451%)" offset="0.753906"/><stop stop-opacity="1" stop-color="rgb(34.336853%, 18.818665%, 57.249451%)" offset="0.757812"/><stop stop-opacity="1" stop-color="rgb(34.132385%, 18.818665%, 57.249451%)" offset="0.761719"/><stop stop-opacity="1" stop-color="rgb(33.946228%, 18.818665%, 57.249451%)" offset="0.765625"/><stop stop-opacity="1" stop-color="rgb(33.552551%, 18.818665%, 57.249451%)" offset="0.769531"/><stop stop-opacity="1" stop-color="rgb(33.312988%, 18.818665%, 57.249451%)" offset="0.773438"/><stop stop-opacity="1" stop-color="rgb(33.105469%, 18.830872%, 57.249451%)" offset="0.777344"/><stop stop-opacity="1" stop-color="rgb(32.723999%, 19.032288%, 57.249451%)" offset="0.78125"/><stop stop-opacity="1" stop-color="rgb(32.345581%, 19.219971%, 57.249451%)" offset="0.785156"/><stop stop-opacity="1" stop-color="rgb(32.159424%, 19.219971%, 57.249451%)" offset="0.789062"/><stop stop-opacity="1" stop-color="rgb(31.965637%, 19.219971%, 57.249451%)" offset="0.792969"/><stop stop-opacity="1" stop-color="rgb(31.581116%, 19.219971%, 57.249451%)" offset="0.796875"/><stop stop-opacity="1" stop-color="rgb(31.3797%, 19.219971%, 57.249451%)" offset="0.800781"/><stop stop-opacity="1" stop-color="rgb(31.193542%, 19.219971%, 57.249451%)" offset="0.804688"/><stop stop-opacity="1" stop-color="rgb(30.828857%, 19.219971%, 57.249451%)" offset="0.808594"/><stop stop-opacity="1" stop-color="rgb(30.418396%, 19.238281%, 57.249451%)" offset="0.8125"/><stop stop-opacity="1" stop-color="rgb(30.183411%, 19.433594%, 57.249451%)" offset="0.816406"/><stop stop-opacity="1" stop-color="rgb(29.972839%, 19.60907%, 57.249451%)" offset="0.820312"/><stop stop-opacity="1" stop-color="rgb(29.59137%, 19.60907%, 57.249451%)" offset="0.824219"/><stop stop-opacity="1" stop-color="rgb(29.216003%, 19.60907%, 57.249451%)" offset="0.832031"/><stop stop-opacity="1" stop-color="rgb(28.834534%, 19.60907%, 57.249451%)" offset="0.835938"/><stop stop-opacity="1" stop-color="rgb(28.453064%, 19.60907%, 57.249451%)" offset="0.839844"/><stop stop-opacity="1" stop-color="rgb(28.07312%, 19.78302%, 57.249451%)" offset="0.84375"/><stop stop-opacity="1" stop-color="rgb(27.66571%, 19.978333%, 57.249451%)" offset="0.851562"/><stop stop-opacity="1" stop-color="rgb(27.430725%, 19.999695%, 57.249451%)" offset="0.855469"/><stop stop-opacity="1" stop-color="rgb(27.22168%, 19.999695%, 57.249451%)" offset="0.859375"/><stop stop-opacity="1" stop-color="rgb(26.841736%, 19.999695%, 57.249451%)" offset="0.863281"/><stop stop-opacity="1" stop-color="rgb(26.460266%, 19.999695%, 57.249451%)" offset="0.867188"/><stop stop-opacity="1" stop-color="rgb(26.078796%, 19.999695%, 57.249451%)" offset="0.875"/><stop stop-opacity="1" stop-color="rgb(25.697327%, 20.184326%, 57.249451%)" offset="0.878906"/><stop stop-opacity="1" stop-color="rgb(25.498962%, 20.379639%, 57.249451%)" offset="0.882812"/><stop stop-opacity="1" stop-color="rgb(25.312805%, 20.388794%, 57.249451%)" offset="0.886719"/><stop stop-opacity="1" stop-color="rgb(24.945068%, 20.388794%, 57.249451%)" offset="0.890625"/><stop stop-opacity="1" stop-color="rgb(24.531555%, 20.388794%, 57.249451%)" offset="0.894531"/><stop stop-opacity="1" stop-color="rgb(24.291992%, 20.388794%, 57.249451%)" offset="0.898438"/><stop stop-opacity="1" stop-color="rgb(24.084473%, 20.388794%, 57.249451%)" offset="0.902344"/><stop stop-opacity="1" stop-color="rgb(23.712158%, 20.396423%, 57.249451%)" offset="0.90625"/><stop stop-opacity="1" stop-color="rgb(23.335266%, 20.591736%, 57.249451%)" offset="0.910156"/><stop stop-opacity="1" stop-color="rgb(22.952271%, 20.779419%, 57.249451%)" offset="0.917969"/><stop stop-opacity="1" stop-color="rgb(22.566223%, 20.779419%, 57.249451%)" offset="0.921875"/><stop stop-opacity="1" stop-color="rgb(22.184753%, 20.779419%, 57.249451%)" offset="0.925781"/><stop stop-opacity="1" stop-color="rgb(21.807861%, 20.779419%, 57.249451%)" offset="0.933594"/><stop stop-opacity="1" stop-color="rgb(21.398926%, 20.979309%, 57.249451%)" offset="0.9375"/><stop stop-opacity="1" stop-color="rgb(21.16394%, 21.179199%, 57.249451%)" offset="0.941406"/><stop stop-opacity="1" stop-color="rgb(20.953369%, 21.179199%, 57.249451%)" offset="0.945312"/><stop stop-opacity="1" stop-color="rgb(20.573425%, 21.179199%, 57.249451%)" offset="0.949219"/><stop stop-opacity="1" stop-color="rgb(20.387268%, 21.179199%, 57.249451%)" offset="0.953125"/><stop stop-opacity="1" stop-color="rgb(20.195007%, 21.179199%, 57.249451%)" offset="0.957031"/><stop stop-opacity="1" stop-color="rgb(19.815063%, 21.179199%, 57.249451%)" offset="0.960938"/><stop stop-opacity="1" stop-color="rgb(19.433594%, 21.179199%, 57.249451%)" offset="0.964844"/><stop stop-opacity="1" stop-color="rgb(19.052124%, 21.374512%, 57.249451%)" offset="0.96875"/><stop stop-opacity="1" stop-color="rgb(18.64624%, 21.569824%, 57.249451%)" offset="0.976562"/><stop stop-opacity="1" stop-color="rgb(18.411255%, 21.569824%, 57.249451%)" offset="0.980469"/><stop stop-opacity="1" stop-color="rgb(18.202209%, 21.569824%, 57.249451%)" offset="0.984375"/><stop stop-opacity="1" stop-color="rgb(17.82074%, 21.569824%, 57.249451%)" offset="0.988281"/><stop stop-opacity="1" stop-color="rgb(17.43927%, 21.569824%, 57.249451%)" offset="0.992188"/><stop stop-opacity="1" stop-color="rgb(17.248535%, 21.569824%, 57.249451%)" offset="1"/></radialGradient><clipPath id="a50e5a13c2"><path d="M 192.613281 144.039062 L 209.773438 144.039062 L 209.773438 164.859375 L 192.613281 164.859375 Z M 192.613281 144.039062 " clip-rule="nonzero"/></clipPath><clipPath id="b642a4fdac"><path d="M 202.453125 154.503906 C 201.6875 154.792969 200.976562 155.261719 200.386719 155.90625 C 198.394531 158.097656 198.5625 161.484375 200.761719 163.46875 C 202.964844 165.453125 206.367188 165.285156 208.359375 163.09375 C 210.355469 160.902344 210.1875 157.519531 207.984375 155.535156 C 206.667969 154.347656 204.917969 153.929688 203.300781 154.257812 C 202.132812 152.433594 200.503906 150.753906 199.125 149.488281 C 200.050781 148.066406 199.832031 146.144531 198.527344 144.972656 C 197.082031 143.667969 194.84375 143.777344 193.53125 145.21875 C 192.222656 146.65625 192.332031 148.882812 193.78125 150.1875 C 195.15625 151.429688 197.246094 151.386719 198.574219 150.140625 C 199.859375 151.320312 201.355469 152.859375 202.453125 154.503906 Z M 202.453125 154.503906 " clip-rule="nonzero"/></clipPath><clipPath id="6e94a2c311"><path d="M 202.453125 154.503906 C 201.6875 154.792969 200.976562 155.261719 200.386719 155.90625 C 198.394531 158.097656 198.5625 161.484375 200.761719 163.46875 C 202.964844 165.453125 206.367188 165.285156 208.359375 163.09375 C 210.355469 160.902344 210.1875 157.519531 207.984375 155.535156 C 206.667969 154.347656 204.917969 153.929688 203.300781 154.257812 C 202.132812 152.433594 200.503906 150.753906 199.125 149.488281 C 200.050781 148.066406 199.832031 146.144531 198.527344 144.972656 C 197.082031 143.667969 194.84375 143.777344 193.53125 145.21875 C 192.222656 146.65625 192.332031 148.882812 193.78125 150.1875 C 195.15625 151.429688 197.246094 151.386719 198.574219 150.140625 C 199.859375 151.320312 201.355469 152.859375 202.453125 154.503906 " clip-rule="nonzero"/></clipPath><clipPath id="7c7b54afca"><path d="M 192.226562 143.339844 L 191.828125 165.445312 L 210.347656 165.777344 L 210.75 143.671875 Z M 192.226562 143.339844 " clip-rule="nonzero"/></clipPath><clipPath id="4af5899627"><path d="M 182.585938 152.722656 L 197.789062 152.722656 L 197.789062 174.644531 L 182.585938 174.644531 Z M 182.585938 152.722656 " clip-rule="nonzero"/></clipPath><clipPath id="3df8b98386"><path d="M 191.371094 165.140625 C 190.734375 164.625 189.972656 164.246094 189.113281 164.0625 C 186.210938 163.4375 183.347656 165.277344 182.722656 168.164062 C 182.097656 171.054688 183.945312 173.902344 186.847656 174.523438 C 189.75 175.148438 192.613281 173.3125 193.238281 170.421875 C 193.613281 168.691406 193.101562 166.976562 192.007812 165.746094 C 193.007812 163.828125 193.660156 161.585938 194.070312 159.765625 C 195.769531 159.851562 197.332031 158.703125 197.703125 156.992188 C 198.117188 155.089844 196.902344 153.21875 194.992188 152.808594 C 193.082031 152.402344 191.203125 153.609375 190.789062 155.507812 C 190.398438 157.316406 191.476562 159.09375 193.226562 159.617188 C 192.84375 161.3125 192.25 163.371094 191.371094 165.140625 Z M 191.371094 165.140625 " clip-rule="nonzero"/></clipPath><clipPath id="e18d1983f5"><path d="M 191.371094 165.140625 C 190.734375 164.625 189.972656 164.246094 189.113281 164.0625 C 186.210938 163.4375 183.347656 165.277344 182.722656 168.164062 C 182.097656 171.054688 183.945312 173.902344 186.847656 174.523438 C 189.75 175.148438 192.613281 173.3125 193.238281 170.421875 C 193.613281 168.691406 193.101562 166.976562 192.007812 165.746094 C 193.007812 163.828125 193.660156 161.585938 194.070312 159.765625 C 195.769531 159.851562 197.332031 158.703125 197.703125 156.992188 C 198.117188 155.089844 196.902344 153.21875 194.992188 152.808594 C 193.082031 152.402344 191.203125 153.609375 190.789062 155.507812 C 190.398438 157.316406 191.476562 159.09375 193.226562 159.617188 C 192.84375 161.3125 192.25 163.371094 191.371094 165.140625 " clip-rule="nonzero"/></clipPath><clipPath id="492ca990ab"><path d="M 182.101562 152.113281 L 181.683594 175.140625 L 198.109375 175.433594 L 198.527344 152.40625 Z M 182.101562 152.113281 " clip-rule="nonzero"/></clipPath><clipPath id="46670f3dbf"><path d="M 165.859375 154.703125 L 189.320312 154.703125 L 189.320312 165.4375 L 165.859375 165.4375 Z M 165.859375 154.703125 " clip-rule="nonzero"/></clipPath><clipPath id="220d1cf803"><path d="M 176.570312 160.910156 C 176.703125 160.101562 176.648438 159.253906 176.378906 158.425781 C 175.472656 155.613281 172.441406 154.066406 169.613281 154.96875 C 166.785156 155.875 165.230469 158.890625 166.140625 161.703125 C 167.050781 164.515625 170.078125 166.0625 172.90625 165.160156 C 174.601562 164.617188 175.835938 163.320312 176.359375 161.761719 C 178.53125 161.664062 180.808594 161.105469 182.597656 160.542969 C 183.375 162.054688 185.15625 162.828125 186.828125 162.292969 C 188.6875 161.695312 189.710938 159.714844 189.113281 157.863281 C 188.515625 156.015625 186.523438 154.996094 184.664062 155.59375 C 182.894531 156.15625 181.886719 157.980469 182.304688 159.746094 C 180.636719 160.265625 178.550781 160.785156 176.570312 160.910156 Z M 176.570312 160.910156 " clip-rule="nonzero"/></clipPath><clipPath id="cb363a97ab"><path d="M 176.570312 160.910156 C 176.703125 160.101562 176.648438 159.253906 176.378906 158.425781 C 175.472656 155.613281 172.441406 154.066406 169.613281 154.96875 C 166.785156 155.875 165.230469 158.890625 166.140625 161.703125 C 167.050781 164.515625 170.078125 166.0625 172.90625 165.160156 C 174.601562 164.617188 175.835938 163.320312 176.359375 161.761719 C 178.53125 161.664062 180.808594 161.105469 182.597656 160.542969 C 183.375 162.054688 185.15625 162.828125 186.828125 162.292969 C 188.6875 161.695312 189.710938 159.714844 189.113281 157.863281 C 188.515625 156.015625 186.523438 154.996094 184.664062 155.59375 C 182.894531 156.15625 181.886719 157.980469 182.304688 159.746094 C 180.636719 160.265625 178.550781 160.785156 176.570312 160.910156 " clip-rule="nonzero"/></clipPath><clipPath id="f470bfc310"><path d="M 165.238281 153.625 L 165.011719 166.058594 L 189.703125 166.503906 L 189.929688 154.070312 Z M 165.238281 153.625 " clip-rule="nonzero"/></clipPath><clipPath id="084f0dc880"><path d="M 165.53125 135.683594 L 182.695312 135.683594 L 182.695312 156.503906 L 165.53125 156.503906 Z M 165.53125 135.683594 " clip-rule="nonzero"/></clipPath><clipPath id="04c5e27c8d"><path d="M 172.851562 146.039062 C 173.621094 145.75 174.332031 145.28125 174.917969 144.632812 C 176.914062 142.441406 176.746094 139.058594 174.542969 137.074219 C 172.34375 135.089844 168.941406 135.257812 166.945312 137.449219 C 164.953125 139.640625 165.121094 143.023438 167.324219 145.007812 C 168.640625 146.195312 170.390625 146.613281 172.007812 146.285156 C 173.175781 148.109375 174.800781 149.789062 176.183594 151.050781 C 175.257812 152.476562 175.476562 154.394531 176.78125 155.570312 C 178.226562 156.875 180.464844 156.765625 181.773438 155.324219 C 183.085938 153.882812 182.976562 151.660156 181.527344 150.355469 C 180.152344 149.113281 178.0625 149.152344 176.730469 150.398438 C 175.445312 149.222656 173.953125 147.683594 172.851562 146.039062 Z M 172.851562 146.039062 " clip-rule="nonzero"/></clipPath><clipPath id="7bad7c54a3"><path d="M 172.851562 146.039062 C 173.621094 145.75 174.332031 145.28125 174.917969 144.632812 C 176.914062 142.441406 176.746094 139.058594 174.542969 137.074219 C 172.34375 135.089844 168.941406 135.257812 166.945312 137.449219 C 164.953125 139.640625 165.121094 143.023438 167.324219 145.007812 C 168.640625 146.195312 170.390625 146.613281 172.007812 146.285156 C 173.175781 148.109375 174.800781 149.789062 176.183594 151.050781 C 175.257812 152.476562 175.476562 154.394531 176.78125 155.570312 C 178.226562 156.875 180.464844 156.765625 181.773438 155.324219 C 183.085938 153.882812 182.976562 151.660156 181.527344 150.355469 C 180.152344 149.113281 178.0625 149.152344 176.730469 150.398438 C 175.445312 149.222656 173.953125 147.683594 172.851562 146.039062 " clip-rule="nonzero"/></clipPath><clipPath id="c06a899917"><path d="M 164.957031 134.765625 L 164.558594 156.867188 L 183.078125 157.199219 L 183.480469 135.097656 Z M 164.957031 134.765625 " clip-rule="nonzero"/></clipPath><clipPath id="f572d77e7a"><path d="M 177.515625 125.894531 L 192.722656 125.894531 L 192.722656 147.820312 L 177.515625 147.820312 Z M 177.515625 125.894531 " clip-rule="nonzero"/></clipPath><clipPath id="dcca37a3e4"><path d="M 183.9375 135.402344 C 184.574219 135.917969 185.335938 136.296875 186.191406 136.480469 C 189.097656 137.101562 191.957031 135.265625 192.585938 132.375 C 193.210938 129.488281 191.363281 126.640625 188.460938 126.015625 C 185.554688 125.394531 182.695312 127.230469 182.070312 130.121094 C 181.695312 131.851562 182.207031 133.5625 183.300781 134.796875 C 182.296875 136.714844 181.648438 138.957031 181.238281 140.777344 C 179.539062 140.691406 177.972656 141.839844 177.605469 143.550781 C 177.191406 145.449219 178.40625 147.324219 180.316406 147.730469 C 182.222656 148.140625 184.105469 146.933594 184.519531 145.035156 C 184.910156 143.226562 183.828125 141.445312 182.082031 140.925781 C 182.464844 139.226562 183.054688 137.167969 183.9375 135.402344 Z M 183.9375 135.402344 " clip-rule="nonzero"/></clipPath><clipPath id="1aa1a1d8bb"><path d="M 183.9375 135.402344 C 184.574219 135.917969 185.335938 136.296875 186.191406 136.480469 C 189.097656 137.101562 191.957031 135.265625 192.585938 132.375 C 193.210938 129.488281 191.363281 126.640625 188.460938 126.015625 C 185.554688 125.394531 182.695312 127.230469 182.070312 130.121094 C 181.695312 131.851562 182.207031 133.566406 183.300781 134.796875 C 182.296875 136.714844 181.648438 138.957031 181.238281 140.777344 C 179.539062 140.691406 177.972656 141.839844 177.605469 143.550781 C 177.191406 145.449219 178.40625 147.324219 180.316406 147.730469 C 182.222656 148.140625 184.105469 146.933594 184.519531 145.035156 C 184.910156 143.226562 183.828125 141.445312 182.082031 140.925781 C 182.464844 139.226562 183.054688 137.167969 183.9375 135.402344 " clip-rule="nonzero"/></clipPath><clipPath id="cf1f745a38"><path d="M 177.195312 125.105469 L 176.78125 148.132812 L 193.203125 148.429688 L 193.621094 125.402344 Z M 177.195312 125.105469 " clip-rule="nonzero"/></clipPath><clipPath id="93360b5dd2"><path d="M 196.089844 130.746094 L 199.746094 130.746094 L 199.746094 134.421875 L 196.089844 134.421875 Z M 196.089844 130.746094 " clip-rule="nonzero"/></clipPath><clipPath id="4dde6e0506"><path d="M 199.742188 132.578125 C 199.742188 133.578125 198.925781 134.386719 197.921875 134.386719 C 196.917969 134.386719 196.101562 133.578125 196.101562 132.578125 C 196.101562 131.578125 196.917969 130.765625 197.921875 130.765625 C 198.925781 130.765625 199.742188 131.578125 199.742188 132.578125 Z M 199.742188 132.578125 " clip-rule="nonzero"/></clipPath><clipPath id="a0fb44fa03"><path d="M 199.742188 132.578125 C 199.742188 133.578125 198.925781 134.386719 197.921875 134.386719 C 196.917969 134.386719 196.101562 133.578125 196.101562 132.578125 C 196.101562 131.578125 196.917969 130.765625 197.921875 130.765625 C 198.925781 130.765625 199.742188 131.578125 199.742188 132.578125 " clip-rule="nonzero"/></clipPath><clipPath id="54bbe3da0d"><path d="M 196.105469 130.703125 L 196.039062 134.386719 L 199.742188 134.453125 L 199.808594 130.769531 Z M 196.105469 130.703125 " clip-rule="nonzero"/></clipPath><clipPath id="d46071073a"><path d="M 175.5625 130.746094 L 179.21875 130.746094 L 179.21875 134.421875 L 175.5625 134.421875 Z M 175.5625 130.746094 " clip-rule="nonzero"/></clipPath><clipPath id="1a76fe9701"><path d="M 179.203125 132.578125 C 179.203125 133.578125 178.390625 134.386719 177.386719 134.386719 C 176.378906 134.386719 175.566406 133.578125 175.566406 132.578125 C 175.566406 131.578125 176.378906 130.765625 177.386719 130.765625 C 178.390625 130.765625 179.203125 131.578125 179.203125 132.578125 Z M 179.203125 132.578125 " clip-rule="nonzero"/></clipPath><clipPath id="f4678a4bba"><path d="M 179.203125 132.578125 C 179.203125 133.578125 178.390625 134.386719 177.386719 134.386719 C 176.378906 134.386719 175.566406 133.578125 175.566406 132.578125 C 175.566406 131.578125 176.378906 130.765625 177.386719 130.765625 C 178.390625 130.765625 179.203125 131.578125 179.203125 132.578125 " clip-rule="nonzero"/></clipPath><clipPath id="165f5f8184"><path d="M 175.566406 130.703125 L 175.5 134.386719 L 179.203125 134.453125 L 179.269531 130.769531 Z M 175.566406 130.703125 " clip-rule="nonzero"/></clipPath><clipPath id="1c657e460d"><path d="M 176.320312 166.121094 L 180 166.121094 L 180 169.796875 L 176.320312 169.796875 Z M 176.320312 166.121094 " clip-rule="nonzero"/></clipPath><clipPath id="1751add16c"><path d="M 179.984375 167.964844 C 179.984375 168.964844 179.167969 169.777344 178.164062 169.777344 C 177.160156 169.777344 176.34375 168.964844 176.34375 167.964844 C 176.34375 166.964844 177.160156 166.152344 178.164062 166.152344 C 179.167969 166.152344 179.984375 166.964844 179.984375 167.964844 Z M 179.984375 167.964844 " clip-rule="nonzero"/></clipPath><clipPath id="c6b1aebfbf"><path d="M 179.984375 167.964844 C 179.984375 168.964844 179.167969 169.777344 178.164062 169.777344 C 177.160156 169.777344 176.34375 168.964844 176.34375 167.964844 C 176.34375 166.964844 177.160156 166.152344 178.164062 166.152344 C 179.167969 166.152344 179.984375 166.964844 179.984375 167.964844 " clip-rule="nonzero"/></clipPath><clipPath id="1b13e4ce26"><path d="M 176.347656 166.089844 L 176.28125 169.773438 L 179.984375 169.839844 L 180.050781 166.15625 Z M 176.347656 166.089844 " clip-rule="nonzero"/></clipPath><clipPath id="5796e235c6"><path d="M 195.292969 166.121094 L 198.984375 166.121094 L 198.984375 169.796875 L 195.292969 169.796875 Z M 195.292969 166.121094 " clip-rule="nonzero"/></clipPath><clipPath id="5d12826826"><path d="M 198.960938 167.964844 C 198.960938 168.964844 198.148438 169.777344 197.144531 169.777344 C 196.136719 169.777344 195.324219 168.964844 195.324219 167.964844 C 195.324219 166.964844 196.136719 166.152344 197.144531 166.152344 C 198.148438 166.152344 198.960938 166.964844 198.960938 167.964844 Z M 198.960938 167.964844 " clip-rule="nonzero"/></clipPath><clipPath id="7c54d2ff10"><path d="M 198.960938 167.964844 C 198.960938 168.964844 198.148438 169.777344 197.144531 169.777344 C 196.136719 169.777344 195.324219 168.964844 195.324219 167.964844 C 195.324219 166.964844 196.136719 166.152344 197.144531 166.152344 C 198.148438 166.152344 198.960938 166.964844 198.960938 167.964844 " clip-rule="nonzero"/></clipPath><clipPath id="4b9961e598"><path d="M 195.324219 166.089844 L 195.257812 169.773438 L 198.960938 169.839844 L 199.027344 166.15625 Z M 195.324219 166.089844 " clip-rule="nonzero"/></clipPath><clipPath id="2e5aea6af6"><path d="M 166.367188 148.433594 L 170.023438 148.433594 L 170.023438 152.109375 L 166.367188 152.109375 Z M 166.367188 148.433594 " clip-rule="nonzero"/></clipPath><clipPath id="887af44cb3"><path d="M 170.007812 150.269531 C 170.007812 151.269531 169.191406 152.082031 168.1875 152.082031 C 167.183594 152.082031 166.367188 151.269531 166.367188 150.269531 C 166.367188 149.269531 167.183594 148.460938 168.1875 148.460938 C 169.191406 148.460938 170.007812 149.269531 170.007812 150.269531 Z M 170.007812 150.269531 " clip-rule="nonzero"/></clipPath><clipPath id="f21a55f127"><path d="M 170.007812 150.269531 C 170.007812 151.269531 169.191406 152.082031 168.1875 152.082031 C 167.183594 152.082031 166.367188 151.269531 166.367188 150.269531 C 166.367188 149.269531 167.183594 148.460938 168.1875 148.460938 C 169.191406 148.460938 170.007812 149.269531 170.007812 150.269531 " clip-rule="nonzero"/></clipPath><clipPath id="c782b0d0d9"><path d="M 166.371094 148.394531 L 166.300781 152.082031 L 170.007812 152.148438 L 170.074219 148.460938 Z M 166.371094 148.394531 " clip-rule="nonzero"/></clipPath><clipPath id="71b154f84e"><path d="M 205.285156 148.433594 L 208.941406 148.433594 L 208.941406 152.109375 L 205.285156 152.109375 Z M 205.285156 148.433594 " clip-rule="nonzero"/></clipPath><clipPath id="f1e3826d0a"><path d="M 208.941406 150.269531 C 208.941406 151.269531 208.125 152.082031 207.121094 152.082031 C 206.113281 152.082031 205.300781 151.269531 205.300781 150.269531 C 205.300781 149.269531 206.113281 148.460938 207.121094 148.460938 C 208.125 148.460938 208.941406 149.269531 208.941406 150.269531 Z M 208.941406 150.269531 " clip-rule="nonzero"/></clipPath><clipPath id="08bbfbb2d8"><path d="M 208.941406 150.269531 C 208.941406 151.269531 208.125 152.082031 207.121094 152.082031 C 206.113281 152.082031 205.300781 151.269531 205.300781 150.269531 C 205.300781 149.269531 206.113281 148.460938 207.121094 148.460938 C 208.125 148.460938 208.941406 149.269531 208.941406 150.269531 " clip-rule="nonzero"/></clipPath><clipPath id="4948199930"><path d="M 205.300781 148.394531 L 205.234375 152.082031 L 208.9375 152.148438 L 209.003906 148.460938 Z M 205.300781 148.394531 " clip-rule="nonzero"/></clipPath><clipPath id="11e8f0b319"><path d="M 120.339844 112.722656 L 165.339844 112.722656 L 165.339844 187.722656 L 120.339844 187.722656 Z M 120.339844 112.722656 " clip-rule="nonzero"/></clipPath><clipPath id="059b3841a3"><path d="M 209.472656 112.5 L 254.472656 112.5 L 254.472656 187.5 L 209.472656 187.5 Z M 209.472656 112.5 " clip-rule="nonzero"/></clipPath><clipPath id="44f2d5bb85"><path d="M 0.660156 0.5 L 45.472656 0.5 L 45.472656 75.5 L 0.660156 75.5 Z M 0.660156 0.5 " clip-rule="nonzero"/></clipPath><clipPath id="110abcf438"><rect x="0" width="46" y="0" height="76"/></clipPath></defs><g fill="#062446" fill-opacity="1"><g transform="translate(69.385819, 253.006536)"><g><path d="M 3.890625 0 C 3.578125 0 3.320312 -0.09375 3.125 -0.28125 C 2.9375 -0.476562 2.84375 -0.734375 2.84375 -1.046875 L 2.84375 -39.5625 C 2.84375 -39.863281 2.9375 -40.109375 3.125 -40.296875 C 3.320312 -40.492188 3.578125 -40.59375 3.890625 -40.59375 L 18.328125 -40.59375 C 21.347656 -40.59375 24.015625 -40.070312 26.328125 -39.03125 C 28.648438 -37.988281 30.445312 -36.5 31.71875 -34.5625 C 33 -32.632812 33.640625 -30.410156 33.640625 -27.890625 L 33.640625 -12.703125 C 33.640625 -10.191406 33 -7.96875 31.71875 -6.03125 C 30.445312 -4.09375 28.648438 -2.601562 26.328125 -1.5625 C 24.015625 -0.519531 21.347656 0 18.328125 0 Z M 12.46875 -8.640625 C 12.46875 -8.367188 12.601562 -8.234375 12.875 -8.234375 L 18.734375 -8.234375 C 20.273438 -8.234375 21.53125 -8.785156 22.5 -9.890625 C 23.46875 -10.992188 23.972656 -12.472656 24.015625 -14.328125 L 24.015625 -26.28125 C 24.015625 -28.132812 23.519531 -29.609375 22.53125 -30.703125 C 21.539062 -31.804688 20.253906 -32.359375 18.671875 -32.359375 L 12.875 -32.359375 C 12.601562 -32.359375 12.46875 -32.222656 12.46875 -31.953125 Z M 12.46875 -8.640625 "/></g></g></g><g fill="#062446" fill-opacity="1"><g transform="translate(105.227442, 253.006536)"><g><path d="M 15.015625 -30.453125 C 17.566406 -30.453125 19.882812 -30.015625 21.96875 -29.140625 C 24.0625 -28.273438 25.707031 -27.078125 26.90625 -25.546875 C 28.101562 -24.023438 28.703125 -22.332031 28.703125 -20.46875 L 28.703125 -1.046875 C 28.703125 -0.734375 28.601562 -0.476562 28.40625 -0.28125 C 28.21875 -0.09375 27.972656 0 27.671875 0 L 20.125 0 C 19.8125 0 19.554688 -0.09375 19.359375 -0.28125 C 19.171875 -0.476562 19.078125 -0.734375 19.078125 -1.046875 L 19.078125 -2.203125 C 19.078125 -2.398438 19.03125 -2.515625 18.9375 -2.546875 C 18.84375 -2.585938 18.738281 -2.53125 18.625 -2.375 C 17.070312 -0.476562 14.578125 0.46875 11.140625 0.46875 C 8.078125 0.46875 5.640625 -0.253906 3.828125 -1.703125 C 2.015625 -3.160156 1.109375 -5.300781 1.109375 -8.125 C 1.109375 -11.101562 2.140625 -13.398438 4.203125 -15.015625 C 6.273438 -16.640625 9.265625 -17.453125 13.171875 -17.453125 L 18.671875 -17.453125 C 18.941406 -17.453125 19.078125 -17.585938 19.078125 -17.859375 L 19.078125 -18.84375 C 19.078125 -19.894531 18.738281 -20.71875 18.0625 -21.3125 C 17.382812 -21.914062 16.429688 -22.21875 15.203125 -22.21875 C 14.304688 -22.21875 13.539062 -22.070312 12.90625 -21.78125 C 12.269531 -21.488281 11.816406 -21.09375 11.546875 -20.59375 C 11.347656 -20.320312 11.160156 -20.117188 10.984375 -19.984375 C 10.816406 -19.847656 10.597656 -19.800781 10.328125 -19.84375 L 2.546875 -20.828125 C 1.859375 -20.898438 1.550781 -21.171875 1.625 -21.640625 C 1.8125 -23.296875 2.503906 -24.789062 3.703125 -26.125 C 4.910156 -27.457031 6.488281 -28.507812 8.4375 -29.28125 C 10.394531 -30.0625 12.585938 -30.453125 15.015625 -30.453125 Z M 14.03125 -6.4375 C 15.5 -6.4375 16.707031 -6.8125 17.65625 -7.5625 C 18.601562 -8.320312 19.078125 -9.320312 19.078125 -10.5625 L 19.078125 -11.828125 C 19.078125 -12.097656 18.941406 -12.234375 18.671875 -12.234375 L 15.3125 -12.234375 C 13.84375 -12.234375 12.710938 -11.984375 11.921875 -11.484375 C 11.128906 -10.984375 10.734375 -10.226562 10.734375 -9.21875 C 10.734375 -8.375 11.019531 -7.695312 11.59375 -7.1875 C 12.175781 -6.6875 12.988281 -6.4375 14.03125 -6.4375 Z M 14.03125 -6.4375 "/></g></g></g><g fill="#062446" fill-opacity="1"><g transform="translate(136.255382, 253.006536)"><g><path d="M 20.9375 -23.3125 C 20.9375 -23.007812 20.835938 -22.757812 20.640625 -22.5625 C 20.453125 -22.363281 20.203125 -22.265625 19.890625 -22.265625 L 15.078125 -22.265625 C 14.804688 -22.265625 14.671875 -22.128906 14.671875 -21.859375 L 14.671875 -11.71875 C 14.671875 -9.507812 15.5625 -8.40625 17.34375 -8.40625 L 19.140625 -8.40625 C 19.453125 -8.40625 19.703125 -8.304688 19.890625 -8.109375 C 20.085938 -7.921875 20.1875 -7.671875 20.1875 -7.359375 L 20.1875 -1.28125 C 20.1875 -0.65625 19.859375 -0.304688 19.203125 -0.234375 C 17.421875 -0.148438 16.160156 -0.109375 15.421875 -0.109375 C 12.054688 -0.109375 9.5625 -0.648438 7.9375 -1.734375 C 6.320312 -2.816406 5.492188 -4.828125 5.453125 -7.765625 L 5.453125 -21.859375 C 5.453125 -22.128906 5.316406 -22.265625 5.046875 -22.265625 L 2.203125 -22.265625 C 1.890625 -22.265625 1.632812 -22.363281 1.4375 -22.5625 C 1.25 -22.757812 1.15625 -23.007812 1.15625 -23.3125 L 1.15625 -28.9375 C 1.15625 -29.25 1.25 -29.5 1.4375 -29.6875 C 1.632812 -29.882812 1.890625 -29.984375 2.203125 -29.984375 L 5.046875 -29.984375 C 5.316406 -29.984375 5.453125 -30.117188 5.453125 -30.390625 L 5.453125 -36.953125 C 5.453125 -37.253906 5.546875 -37.5 5.734375 -37.6875 C 5.929688 -37.882812 6.1875 -37.984375 6.5 -37.984375 L 13.625 -37.984375 C 13.9375 -37.984375 14.1875 -37.882812 14.375 -37.6875 C 14.570312 -37.5 14.671875 -37.253906 14.671875 -36.953125 L 14.671875 -30.390625 C 14.671875 -30.117188 14.804688 -29.984375 15.078125 -29.984375 L 19.890625 -29.984375 C 20.203125 -29.984375 20.453125 -29.882812 20.640625 -29.6875 C 20.835938 -29.5 20.9375 -29.25 20.9375 -28.9375 Z M 20.9375 -23.3125 "/></g></g></g><g fill="#062446" fill-opacity="1"><g transform="translate(158.641901, 253.006536)"><g><path d="M 15.015625 -30.453125 C 17.566406 -30.453125 19.882812 -30.015625 21.96875 -29.140625 C 24.0625 -28.273438 25.707031 -27.078125 26.90625 -25.546875 C 28.101562 -24.023438 28.703125 -22.332031 28.703125 -20.46875 L 28.703125 -1.046875 C 28.703125 -0.734375 28.601562 -0.476562 28.40625 -0.28125 C 28.21875 -0.09375 27.972656 0 27.671875 0 L 20.125 0 C 19.8125 0 19.554688 -0.09375 19.359375 -0.28125 C 19.171875 -0.476562 19.078125 -0.734375 19.078125 -1.046875 L 19.078125 -2.203125 C 19.078125 -2.398438 19.03125 -2.515625 18.9375 -2.546875 C 18.84375 -2.585938 18.738281 -2.53125 18.625 -2.375 C 17.070312 -0.476562 14.578125 0.46875 11.140625 0.46875 C 8.078125 0.46875 5.640625 -0.253906 3.828125 -1.703125 C 2.015625 -3.160156 1.109375 -5.300781 1.109375 -8.125 C 1.109375 -11.101562 2.140625 -13.398438 4.203125 -15.015625 C 6.273438 -16.640625 9.265625 -17.453125 13.171875 -17.453125 L 18.671875 -17.453125 C 18.941406 -17.453125 19.078125 -17.585938 19.078125 -17.859375 L 19.078125 -18.84375 C 19.078125 -19.894531 18.738281 -20.71875 18.0625 -21.3125 C 17.382812 -21.914062 16.429688 -22.21875 15.203125 -22.21875 C 14.304688 -22.21875 13.539062 -22.070312 12.90625 -21.78125 C 12.269531 -21.488281 11.816406 -21.09375 11.546875 -20.59375 C 11.347656 -20.320312 11.160156 -20.117188 10.984375 -19.984375 C 10.816406 -19.847656 10.597656 -19.800781 10.328125 -19.84375 L 2.546875 -20.828125 C 1.859375 -20.898438 1.550781 -21.171875 1.625 -21.640625 C 1.8125 -23.296875 2.503906 -24.789062 3.703125 -26.125 C 4.910156 -27.457031 6.488281 -28.507812 8.4375 -29.28125 C 10.394531 -30.0625 12.585938 -30.453125 15.015625 -30.453125 Z M 14.03125 -6.4375 C 15.5 -6.4375 16.707031 -6.8125 17.65625 -7.5625 C 18.601562 -8.320312 19.078125 -9.320312 19.078125 -10.5625 L 19.078125 -11.828125 C 19.078125 -12.097656 18.941406 -12.234375 18.671875 -12.234375 L 15.3125 -12.234375 C 13.84375 -12.234375 12.710938 -11.984375 11.921875 -11.484375 C 11.128906 -10.984375 10.734375 -10.226562 10.734375 -9.21875 C 10.734375 -8.375 11.019531 -7.695312 11.59375 -7.1875 C 12.175781 -6.6875 12.988281 -6.4375 14.03125 -6.4375 Z M 14.03125 -6.4375 "/></g></g></g><g fill="#062446" fill-opacity="1"><g transform="translate(189.669842, 253.006536)"><g><path d="M 19.375 -30.453125 C 22.382812 -30.453125 24.847656 -29.492188 26.765625 -27.578125 C 28.679688 -25.660156 29.640625 -23.0625 29.640625 -19.78125 L 29.640625 -1.046875 C 29.640625 -0.734375 29.539062 -0.476562 29.34375 -0.28125 C 29.15625 -0.09375 28.90625 0 28.59375 0 L 21.046875 0 C 20.742188 0 20.492188 -0.09375 20.296875 -0.28125 C 20.109375 -0.476562 20.015625 -0.734375 20.015625 -1.046875 L 20.015625 -17.6875 C 20.015625 -19.039062 19.65625 -20.132812 18.9375 -20.96875 C 18.21875 -21.800781 17.257812 -22.21875 16.0625 -22.21875 C 14.863281 -22.21875 13.894531 -21.800781 13.15625 -20.96875 C 12.425781 -20.132812 12.0625 -19.039062 12.0625 -17.6875 L 12.0625 -1.046875 C 12.0625 -0.734375 11.960938 -0.476562 11.765625 -0.28125 C 11.578125 -0.09375 11.328125 0 11.015625 0 L 3.484375 0 C 3.171875 0 2.914062 -0.09375 2.71875 -0.28125 C 2.53125 -0.476562 2.4375 -0.734375 2.4375 -1.046875 L 2.4375 -28.9375 C 2.4375 -29.25 2.53125 -29.5 2.71875 -29.6875 C 2.914062 -29.882812 3.171875 -29.984375 3.484375 -29.984375 L 11.015625 -29.984375 C 11.328125 -29.984375 11.578125 -29.882812 11.765625 -29.6875 C 11.960938 -29.5 12.0625 -29.25 12.0625 -28.9375 L 12.0625 -27.3125 C 12.0625 -27.125 12.109375 -27.007812 12.203125 -26.96875 C 12.304688 -26.925781 12.394531 -26.984375 12.46875 -27.140625 C 14.050781 -29.347656 16.351562 -30.453125 19.375 -30.453125 Z M 19.375 -30.453125 "/></g></g></g><g fill="#062446" fill-opacity="1"><g transform="translate(221.567728, 253.006536)"><g><path d="M 17.515625 -7.71875 C 18.710938 -7.71875 19.820312 -7.898438 20.84375 -8.265625 C 21.875 -8.628906 22.738281 -9.125 23.4375 -9.75 C 23.664062 -10.019531 23.914062 -10.15625 24.1875 -10.15625 C 24.414062 -10.15625 24.644531 -10.019531 24.875 -9.75 L 28.484375 -5.453125 C 28.710938 -5.179688 28.828125 -4.929688 28.828125 -4.703125 C 28.828125 -4.429688 28.710938 -4.175781 28.484375 -3.9375 C 27.160156 -2.550781 25.492188 -1.46875 23.484375 -0.6875 C 21.472656 0.0820312 19.328125 0.46875 17.046875 0.46875 C 14.421875 0.46875 12.09375 -0.00390625 10.0625 -0.953125 C 8.03125 -1.898438 6.359375 -3.226562 5.046875 -4.9375 C 2.921875 -7.632812 1.859375 -11.070312 1.859375 -15.25 C 1.859375 -17.101562 2.070312 -18.84375 2.5 -20.46875 C 3.34375 -23.488281 5 -25.914062 7.46875 -27.75 C 9.945312 -29.59375 12.851562 -30.515625 16.1875 -30.515625 C 20.050781 -30.515625 23.171875 -29.3125 25.546875 -26.90625 C 27.921875 -24.507812 29.476562 -21.164062 30.21875 -16.875 C 30.375 -15.789062 30.488281 -14.613281 30.5625 -13.34375 C 30.5625 -12.644531 30.210938 -12.296875 29.515625 -12.296875 L 12 -12.296875 C 11.882812 -12.296875 11.78125 -12.253906 11.6875 -12.171875 C 11.59375 -12.097656 11.5625 -11.984375 11.59375 -11.828125 L 11.953125 -10.671875 C 12.335938 -9.742188 13.007812 -9.019531 13.96875 -8.5 C 14.9375 -7.976562 16.117188 -7.71875 17.515625 -7.71875 Z M 16.015625 -22.21875 C 14.035156 -22.21875 12.695312 -21.269531 12 -19.375 C 11.851562 -18.988281 11.757812 -18.695312 11.71875 -18.5 L 11.71875 -18.390625 C 11.71875 -18.148438 11.851562 -18.03125 12.125 -18.03125 L 20.0625 -18.03125 C 20.21875 -18.03125 20.320312 -18.078125 20.375 -18.171875 C 20.4375 -18.273438 20.453125 -18.382812 20.421875 -18.5 L 20.1875 -19.25 C 19.875 -20.175781 19.367188 -20.898438 18.671875 -21.421875 C 17.972656 -21.953125 17.085938 -22.21875 16.015625 -22.21875 Z M 16.015625 -22.21875 "/></g></g></g><g fill="#062446" fill-opacity="1"><g transform="translate(253.5816, 253.006536)"><g><path d="M 15.203125 0.46875 C 12.453125 0.46875 10.0625 0.09375 8.03125 -0.65625 C 6 -1.414062 4.429688 -2.484375 3.328125 -3.859375 C 2.234375 -5.234375 1.6875 -6.804688 1.6875 -8.578125 L 1.6875 -8.875 C 1.6875 -9.1875 1.78125 -9.4375 1.96875 -9.625 C 2.164062 -9.820312 2.414062 -9.921875 2.71875 -9.921875 L 9.859375 -9.921875 C 10.554688 -9.921875 10.90625 -9.800781 10.90625 -9.5625 L 10.90625 -9.21875 C 10.90625 -8.488281 11.300781 -7.878906 12.09375 -7.390625 C 12.882812 -6.910156 13.898438 -6.671875 15.140625 -6.671875 C 16.222656 -6.671875 17.09375 -6.851562 17.75 -7.21875 C 18.40625 -7.582031 18.734375 -8.078125 18.734375 -8.703125 C 18.734375 -9.316406 18.382812 -9.769531 17.6875 -10.0625 C 16.988281 -10.351562 15.890625 -10.632812 14.390625 -10.90625 C 11.953125 -11.363281 9.976562 -11.925781 8.46875 -12.59375 C 6.53125 -13.394531 4.972656 -14.414062 3.796875 -15.65625 C 2.617188 -16.894531 2.03125 -18.554688 2.03125 -20.640625 C 2.03125 -23.660156 3.195312 -26.050781 5.53125 -27.8125 C 7.875 -29.570312 10.960938 -30.453125 14.796875 -30.453125 C 17.378906 -30.453125 19.644531 -30.035156 21.59375 -29.203125 C 23.550781 -28.367188 25.070312 -27.195312 26.15625 -25.6875 C 27.238281 -24.1875 27.78125 -22.445312 27.78125 -20.46875 C 27.78125 -20.28125 27.679688 -20.117188 27.484375 -19.984375 C 27.296875 -19.847656 27.046875 -19.78125 26.734375 -19.78125 L 19.84375 -19.78125 C 19.144531 -19.78125 18.796875 -19.894531 18.796875 -20.125 L 18.796875 -20.46875 C 18.796875 -21.207031 18.445312 -21.804688 17.75 -22.265625 C 17.050781 -22.734375 16.101562 -22.96875 14.90625 -22.96875 C 13.820312 -22.96875 12.941406 -22.78125 12.265625 -22.40625 C 11.585938 -22.039062 11.25 -21.53125 11.25 -20.875 C 11.25 -20.21875 11.613281 -19.742188 12.34375 -19.453125 C 13.082031 -19.171875 14.320312 -18.851562 16.0625 -18.5 C 18.425781 -18.039062 20.015625 -17.675781 20.828125 -17.40625 C 23.179688 -16.625 25.023438 -15.578125 26.359375 -14.265625 C 27.691406 -12.953125 28.359375 -11.191406 28.359375 -8.984375 C 28.359375 -5.972656 27.171875 -3.644531 24.796875 -2 C 22.421875 -0.351562 19.222656 0.46875 15.203125 0.46875 Z M 15.203125 0.46875 "/></g></g></g><g fill="#062446" fill-opacity="1"><g transform="translate(283.21763, 253.006536)"><g><path d="M 20.9375 -23.3125 C 20.9375 -23.007812 20.835938 -22.757812 20.640625 -22.5625 C 20.453125 -22.363281 20.203125 -22.265625 19.890625 -22.265625 L 15.078125 -22.265625 C 14.804688 -22.265625 14.671875 -22.128906 14.671875 -21.859375 L 14.671875 -11.71875 C 14.671875 -9.507812 15.5625 -8.40625 17.34375 -8.40625 L 19.140625 -8.40625 C 19.453125 -8.40625 19.703125 -8.304688 19.890625 -8.109375 C 20.085938 -7.921875 20.1875 -7.671875 20.1875 -7.359375 L 20.1875 -1.28125 C 20.1875 -0.65625 19.859375 -0.304688 19.203125 -0.234375 C 17.421875 -0.148438 16.160156 -0.109375 15.421875 -0.109375 C 12.054688 -0.109375 9.5625 -0.648438 7.9375 -1.734375 C 6.320312 -2.816406 5.492188 -4.828125 5.453125 -7.765625 L 5.453125 -21.859375 C 5.453125 -22.128906 5.316406 -22.265625 5.046875 -22.265625 L 2.203125 -22.265625 C 1.890625 -22.265625 1.632812 -22.363281 1.4375 -22.5625 C 1.25 -22.757812 1.15625 -23.007812 1.15625 -23.3125 L 1.15625 -28.9375 C 1.15625 -29.25 1.25 -29.5 1.4375 -29.6875 C 1.632812 -29.882812 1.890625 -29.984375 2.203125 -29.984375 L 5.046875 -29.984375 C 5.316406 -29.984375 5.453125 -30.117188 5.453125 -30.390625 L 5.453125 -36.953125 C 5.453125 -37.253906 5.546875 -37.5 5.734375 -37.6875 C 5.929688 -37.882812 6.1875 -37.984375 6.5 -37.984375 L 13.625 -37.984375 C 13.9375 -37.984375 14.1875 -37.882812 14.375 -37.6875 C 14.570312 -37.5 14.671875 -37.253906 14.671875 -36.953125 L 14.671875 -30.390625 C 14.671875 -30.117188 14.804688 -29.984375 15.078125 -29.984375 L 19.890625 -29.984375 C 20.203125 -29.984375 20.453125 -29.882812 20.640625 -29.6875 C 20.835938 -29.5 20.9375 -29.25 20.9375 -28.9375 Z M 20.9375 -23.3125 "/></g></g></g><g clip-path="url(#b61314114f)"><g clip-path="url(#d0db5d7b74)"><g clip-path="url(#137f7fbca5)"><g clip-path="url(#67441e2b47)"><path fill="url(#7e58479157)" d="M 185.996094 134.683594 L 185.792969 145.835938 L 209.441406 146.261719 L 209.644531 135.109375 Z M 185.996094 134.683594 " fill-rule="nonzero"/></g></g></g></g><g clip-path="url(#a50e5a13c2)"><g clip-path="url(#b642a4fdac)"><g clip-path="url(#6e94a2c311)"><g clip-path="url(#7c7b54afca)"><path fill="url(#7e58479157)" d="M 192.621094 143.730469 L 192.238281 164.855469 L 209.769531 165.167969 L 210.152344 144.046875 Z M 192.621094 143.730469 " fill-rule="nonzero"/></g></g></g></g><g clip-path="url(#4af5899627)"><g clip-path="url(#3df8b98386)"><g clip-path="url(#e18d1983f5)"><g clip-path="url(#492ca990ab)"><path fill="url(#7e58479157)" d="M 182.589844 152.449219 L 182.1875 174.636719 L 197.785156 174.917969 L 198.1875 152.726562 Z M 182.589844 152.449219 " fill-rule="nonzero"/></g></g></g></g><g clip-path="url(#46670f3dbf)"><g clip-path="url(#220d1cf803)"><g clip-path="url(#cb363a97ab)"><g clip-path="url(#f470bfc310)"><path fill="url(#7e58479157)" d="M 165.867188 154.28125 L 165.664062 165.433594 L 189.3125 165.855469 L 189.511719 154.707031 Z M 165.867188 154.28125 " fill-rule="nonzero"/></g></g></g></g><g clip-path="url(#084f0dc880)"><g clip-path="url(#04c5e27c8d)"><g clip-path="url(#7bad7c54a3)"><g clip-path="url(#c06a899917)"><path fill="url(#7e58479157)" d="M 165.539062 135.375 L 165.15625 156.496094 L 182.6875 156.808594 L 183.070312 135.6875 Z M 165.539062 135.375 " fill-rule="nonzero"/></g></g></g></g><g clip-path="url(#f572d77e7a)"><g clip-path="url(#dcca37a3e4)"><g clip-path="url(#1aa1a1d8bb)"><g clip-path="url(#cf1f745a38)"><path fill="url(#7e58479157)" d="M 177.523438 125.621094 L 177.121094 147.816406 L 192.71875 148.09375 L 193.117188 125.902344 Z M 177.523438 125.621094 " fill-rule="nonzero"/></g></g></g></g><g clip-path="url(#93360b5dd2)"><g clip-path="url(#4dde6e0506)"><g clip-path="url(#a0fb44fa03)"><g clip-path="url(#54bbe3da0d)"><path fill="url(#7e58479157)" d="M 196.105469 130.703125 L 196.039062 134.386719 L 199.742188 134.453125 L 199.808594 130.769531 Z M 196.105469 130.703125 " fill-rule="nonzero"/></g></g></g></g><g clip-path="url(#d46071073a)"><g clip-path="url(#1a76fe9701)"><g clip-path="url(#f4678a4bba)"><g clip-path="url(#165f5f8184)"><path fill="url(#7e58479157)" d="M 175.566406 130.703125 L 175.5 134.386719 L 179.203125 134.453125 L 179.269531 130.769531 Z M 175.566406 130.703125 " fill-rule="nonzero"/></g></g></g></g><g clip-path="url(#1c657e460d)"><g clip-path="url(#1751add16c)"><g clip-path="url(#c6b1aebfbf)"><g clip-path="url(#1b13e4ce26)"><path fill="url(#7e58479157)" d="M 176.347656 166.089844 L 176.28125 169.773438 L 179.984375 169.839844 L 180.050781 166.15625 Z M 176.347656 166.089844 " fill-rule="nonzero"/></g></g></g></g><g clip-path="url(#5796e235c6)"><g clip-path="url(#5d12826826)"><g clip-path="url(#7c54d2ff10)"><g clip-path="url(#4b9961e598)"><path fill="url(#7e58479157)" d="M 195.324219 166.089844 L 195.257812 169.773438 L 198.960938 169.839844 L 199.027344 166.15625 Z M 195.324219 166.089844 " fill-rule="nonzero"/></g></g></g></g><g clip-path="url(#2e5aea6af6)"><g clip-path="url(#887af44cb3)"><g clip-path="url(#f21a55f127)"><g clip-path="url(#c782b0d0d9)"><path fill="url(#7e58479157)" d="M 166.367188 148.394531 L 166.300781 152.082031 L 170.007812 152.148438 L 170.074219 148.460938 Z M 166.367188 148.394531 " fill-rule="nonzero"/></g></g></g></g><g clip-path="url(#71b154f84e)"><g clip-path="url(#f1e3826d0a)"><g clip-path="url(#08bbfbb2d8)"><g clip-path="url(#4948199930)"><path fill="url(#7e58479157)" d="M 205.300781 148.394531 L 205.234375 152.082031 L 208.9375 152.148438 L 209.003906 148.460938 Z M 205.300781 148.394531 " fill-rule="nonzero"/></g></g></g></g><g clip-path="url(#11e8f0b319)"><path fill="#062446" d="M 157.640625 187.640625 L 120.347656 150.34375 L 157.902344 112.792969 L 165.539062 120.425781 L 135.621094 150.34375 L 165.277344 180.003906 L 157.640625 187.640625 " fill-opacity="1" fill-rule="nonzero"/></g><g fill="#8f24b5" fill-opacity="1"><g transform="translate(136.52199, 284.220099)"><g><path d="M 10.5 -13.90625 C 10.71875 -13.90625 10.828125 -13.796875 10.828125 -13.578125 L 10.828125 -12.21875 C 10.828125 -12 10.71875 -11.890625 10.5 -11.890625 L 6.953125 -11.890625 C 6.867188 -11.890625 6.828125 -11.851562 6.828125 -11.78125 L 6.828125 -0.3125 C 6.828125 -0.101562 6.722656 0 6.515625 0 L 4.84375 0 C 4.632812 0 4.53125 -0.101562 4.53125 -0.3125 L 4.53125 -11.78125 C 4.53125 -11.851562 4.488281 -11.890625 4.40625 -11.890625 L 1 -11.890625 C 0.78125 -11.890625 0.671875 -12 0.671875 -12.21875 L 0.671875 -13.578125 C 0.671875 -13.796875 0.78125 -13.90625 1 -13.90625 Z M 10.5 -13.90625 "/></g></g></g><g fill="#8f24b5" fill-opacity="1"><g transform="translate(148.016046, 284.220099)"><g><path d="M 5.78125 -1.78125 C 6.269531 -1.800781 6.695312 -1.90625 7.0625 -2.09375 C 7.425781 -2.289062 7.71875 -2.550781 7.9375 -2.875 C 8.007812 -2.976562 8.097656 -3.03125 8.203125 -3.03125 C 8.265625 -3.03125 8.320312 -3.015625 8.375 -2.984375 L 9.328125 -2.21875 C 9.421875 -2.125 9.46875 -2.039062 9.46875 -1.96875 C 9.46875 -1.914062 9.445312 -1.851562 9.40625 -1.78125 C 9.03125 -1.175781 8.507812 -0.703125 7.84375 -0.359375 C 7.175781 -0.015625 6.414062 0.15625 5.5625 0.15625 C 4.507812 0.15625 3.628906 -0.0859375 2.921875 -0.578125 C 2.210938 -1.078125 1.703125 -1.769531 1.390625 -2.65625 C 1.128906 -3.382812 1 -4.207031 1 -5.125 C 1 -6.039062 1.070312 -6.742188 1.21875 -7.234375 C 1.46875 -8.171875 1.960938 -8.914062 2.703125 -9.46875 C 3.441406 -10.03125 4.34375 -10.3125 5.40625 -10.3125 C 7.875 -10.3125 9.320312 -8.953125 9.75 -6.234375 C 9.8125 -5.796875 9.859375 -5.253906 9.890625 -4.609375 C 9.890625 -4.398438 9.785156 -4.296875 9.578125 -4.296875 L 3.421875 -4.296875 C 3.335938 -4.296875 3.296875 -4.253906 3.296875 -4.171875 C 3.296875 -3.816406 3.335938 -3.523438 3.421875 -3.296875 C 3.566406 -2.816406 3.84375 -2.441406 4.25 -2.171875 C 4.65625 -1.910156 5.164062 -1.78125 5.78125 -1.78125 Z M 5.375 -8.328125 C 4.875 -8.328125 4.460938 -8.203125 4.140625 -7.953125 C 3.816406 -7.710938 3.59375 -7.375 3.46875 -6.9375 C 3.382812 -6.664062 3.332031 -6.382812 3.3125 -6.09375 C 3.300781 -6.019531 3.335938 -5.984375 3.421875 -5.984375 L 7.40625 -5.984375 C 7.488281 -5.984375 7.53125 -6.019531 7.53125 -6.09375 C 7.476562 -6.488281 7.4375 -6.726562 7.40625 -6.8125 C 7.289062 -7.269531 7.054688 -7.632812 6.703125 -7.90625 C 6.347656 -8.1875 5.90625 -8.328125 5.375 -8.328125 Z M 5.375 -8.328125 "/></g></g></g><g fill="#8f24b5" fill-opacity="1"><g transform="translate(158.775597, 284.220099)"><g><path d="M 5.46875 0.15625 C 4.445312 0.15625 3.5625 -0.101562 2.8125 -0.625 C 2.070312 -1.144531 1.554688 -1.847656 1.265625 -2.734375 C 1.054688 -3.335938 0.953125 -4.132812 0.953125 -5.125 C 0.953125 -6.070312 1.054688 -6.851562 1.265625 -7.46875 C 1.546875 -8.34375 2.0625 -9.035156 2.8125 -9.546875 C 3.5625 -10.054688 4.445312 -10.3125 5.46875 -10.3125 C 6.5 -10.3125 7.394531 -10.050781 8.15625 -9.53125 C 8.925781 -9.019531 9.4375 -8.375 9.6875 -7.59375 C 9.726562 -7.46875 9.769531 -7.28125 9.8125 -7.03125 L 9.8125 -6.953125 C 9.8125 -6.804688 9.722656 -6.710938 9.546875 -6.671875 L 7.90625 -6.421875 L 7.828125 -6.421875 C 7.679688 -6.421875 7.585938 -6.5 7.546875 -6.65625 L 7.484375 -6.90625 C 7.390625 -7.300781 7.15625 -7.632812 6.78125 -7.90625 C 6.414062 -8.1875 5.976562 -8.328125 5.46875 -8.328125 C 4.957031 -8.328125 4.523438 -8.195312 4.171875 -7.9375 C 3.828125 -7.675781 3.59375 -7.320312 3.46875 -6.875 C 3.34375 -6.445312 3.28125 -5.859375 3.28125 -5.109375 C 3.28125 -4.378906 3.335938 -3.789062 3.453125 -3.34375 C 3.585938 -2.875 3.828125 -2.503906 4.171875 -2.234375 C 4.515625 -1.960938 4.945312 -1.828125 5.46875 -1.828125 C 5.96875 -1.828125 6.398438 -1.957031 6.765625 -2.21875 C 7.128906 -2.476562 7.363281 -2.816406 7.46875 -3.234375 L 7.484375 -3.34375 C 7.492188 -3.40625 7.535156 -3.46875 7.609375 -3.53125 C 7.679688 -3.601562 7.765625 -3.628906 7.859375 -3.609375 L 9.515625 -3.359375 C 9.679688 -3.316406 9.765625 -3.222656 9.765625 -3.078125 C 9.765625 -2.992188 9.738281 -2.835938 9.6875 -2.609375 C 9.4375 -1.753906 8.925781 -1.078125 8.15625 -0.578125 C 7.394531 -0.0859375 6.5 0.15625 5.46875 0.15625 Z M 5.46875 0.15625 "/></g></g></g><g fill="#8f24b5" fill-opacity="1"><g transform="translate(169.316773, 284.220099)"><g><path d="M 6.09375 -10.3125 C 7.175781 -10.3125 8.039062 -9.992188 8.6875 -9.359375 C 9.332031 -8.722656 9.65625 -7.851562 9.65625 -6.75 L 9.65625 -0.3125 C 9.65625 -0.101562 9.546875 0 9.328125 0 L 7.671875 0 C 7.453125 0 7.34375 -0.101562 7.34375 -0.3125 L 7.34375 -6.28125 C 7.34375 -6.882812 7.164062 -7.375 6.8125 -7.75 C 6.46875 -8.132812 6.007812 -8.328125 5.4375 -8.328125 C 4.875 -8.328125 4.414062 -8.140625 4.0625 -7.765625 C 3.707031 -7.390625 3.53125 -6.898438 3.53125 -6.296875 L 3.53125 -0.3125 C 3.53125 -0.101562 3.425781 0 3.21875 0 L 1.546875 0 C 1.335938 0 1.234375 -0.101562 1.234375 -0.3125 L 1.234375 -13.578125 C 1.234375 -13.796875 1.335938 -13.90625 1.546875 -13.90625 L 3.21875 -13.90625 C 3.425781 -13.90625 3.53125 -13.796875 3.53125 -13.578125 L 3.53125 -9.296875 C 3.53125 -9.242188 3.539062 -9.207031 3.5625 -9.1875 C 3.59375 -9.175781 3.625 -9.191406 3.65625 -9.234375 C 4.207031 -9.953125 5.019531 -10.3125 6.09375 -10.3125 Z M 6.09375 -10.3125 "/></g></g></g><g fill="#8f24b5" fill-opacity="1"><g transform="translate(180.116023, 284.220099)"><g><path d="M 6.09375 -10.3125 C 7.175781 -10.3125 8.039062 -9.992188 8.6875 -9.359375 C 9.332031 -8.722656 9.65625 -7.851562 9.65625 -6.75 L 9.65625 -0.3125 C 9.65625 -0.101562 9.546875 0 9.328125 0 L 7.671875 0 C 7.453125 0 7.34375 -0.101562 7.34375 -0.3125 L 7.34375 -6.28125 C 7.34375 -6.882812 7.164062 -7.375 6.8125 -7.75 C 6.46875 -8.132812 6.007812 -8.328125 5.4375 -8.328125 C 4.875 -8.328125 4.414062 -8.140625 4.0625 -7.765625 C 3.707031 -7.390625 3.53125 -6.898438 3.53125 -6.296875 L 3.53125 -0.3125 C 3.53125 -0.101562 3.425781 0 3.21875 0 L 1.546875 0 C 1.335938 0 1.234375 -0.101562 1.234375 -0.3125 L 1.234375 -9.828125 C 1.234375 -10.035156 1.335938 -10.140625 1.546875 -10.140625 L 3.21875 -10.140625 C 3.425781 -10.140625 3.53125 -10.035156 3.53125 -9.828125 L 3.53125 -9.296875 C 3.53125 -9.242188 3.539062 -9.207031 3.5625 -9.1875 C 3.59375 -9.175781 3.625 -9.191406 3.65625 -9.234375 C 4.207031 -9.953125 5.019531 -10.3125 6.09375 -10.3125 Z M 6.09375 -10.3125 "/></g></g></g><g fill="#8f24b5" fill-opacity="1"><g transform="translate(190.915274, 284.220099)"><g><path d="M 5.5625 0.15625 C 4.507812 0.15625 3.609375 -0.109375 2.859375 -0.640625 C 2.109375 -1.171875 1.585938 -1.90625 1.296875 -2.84375 C 1.066406 -3.488281 0.953125 -4.242188 0.953125 -5.109375 C 0.953125 -5.953125 1.054688 -6.707031 1.265625 -7.375 C 1.578125 -8.300781 2.109375 -9.019531 2.859375 -9.53125 C 3.609375 -10.050781 4.515625 -10.3125 5.578125 -10.3125 C 6.585938 -10.3125 7.457031 -10.050781 8.1875 -9.53125 C 8.925781 -9.019531 9.445312 -8.304688 9.75 -7.390625 C 9.988281 -6.753906 10.109375 -6 10.109375 -5.125 C 10.109375 -4.289062 9.992188 -3.535156 9.765625 -2.859375 C 9.460938 -1.921875 8.941406 -1.179688 8.203125 -0.640625 C 7.460938 -0.109375 6.582031 0.15625 5.5625 0.15625 Z M 5.5625 -1.828125 C 6.050781 -1.828125 6.46875 -1.960938 6.8125 -2.234375 C 7.164062 -2.515625 7.414062 -2.910156 7.5625 -3.421875 C 7.707031 -3.835938 7.78125 -4.390625 7.78125 -5.078125 C 7.78125 -5.734375 7.71875 -6.289062 7.59375 -6.75 C 7.445312 -7.25 7.191406 -7.632812 6.828125 -7.90625 C 6.460938 -8.1875 6.023438 -8.328125 5.515625 -8.328125 C 5.015625 -8.328125 4.582031 -8.1875 4.21875 -7.90625 C 3.863281 -7.632812 3.613281 -7.25 3.46875 -6.75 C 3.34375 -6.289062 3.28125 -5.734375 3.28125 -5.078125 C 3.28125 -4.429688 3.34375 -3.878906 3.46875 -3.421875 C 3.613281 -2.910156 3.867188 -2.515625 4.234375 -2.234375 C 4.597656 -1.960938 5.039062 -1.828125 5.5625 -1.828125 Z M 5.5625 -1.828125 "/></g></g></g><g fill="#8f24b5" fill-opacity="1"><g transform="translate(201.972601, 284.220099)"><g><path d="M 1.5625 0 C 1.351562 0 1.25 -0.101562 1.25 -0.3125 L 1.25 -13.578125 C 1.25 -13.796875 1.351562 -13.90625 1.5625 -13.90625 L 3.234375 -13.90625 C 3.453125 -13.90625 3.5625 -13.796875 3.5625 -13.578125 L 3.5625 -0.3125 C 3.5625 -0.101562 3.453125 0 3.234375 0 Z M 1.5625 0 "/></g></g></g><g fill="#8f24b5" fill-opacity="1"><g transform="translate(206.796525, 284.220099)"><g><path d="M 5.5625 0.15625 C 4.507812 0.15625 3.609375 -0.109375 2.859375 -0.640625 C 2.109375 -1.171875 1.585938 -1.90625 1.296875 -2.84375 C 1.066406 -3.488281 0.953125 -4.242188 0.953125 -5.109375 C 0.953125 -5.953125 1.054688 -6.707031 1.265625 -7.375 C 1.578125 -8.300781 2.109375 -9.019531 2.859375 -9.53125 C 3.609375 -10.050781 4.515625 -10.3125 5.578125 -10.3125 C 6.585938 -10.3125 7.457031 -10.050781 8.1875 -9.53125 C 8.925781 -9.019531 9.445312 -8.304688 9.75 -7.390625 C 9.988281 -6.753906 10.109375 -6 10.109375 -5.125 C 10.109375 -4.289062 9.992188 -3.535156 9.765625 -2.859375 C 9.460938 -1.921875 8.941406 -1.179688 8.203125 -0.640625 C 7.460938 -0.109375 6.582031 0.15625 5.5625 0.15625 Z M 5.5625 -1.828125 C 6.050781 -1.828125 6.46875 -1.960938 6.8125 -2.234375 C 7.164062 -2.515625 7.414062 -2.910156 7.5625 -3.421875 C 7.707031 -3.835938 7.78125 -4.390625 7.78125 -5.078125 C 7.78125 -5.734375 7.71875 -6.289062 7.59375 -6.75 C 7.445312 -7.25 7.191406 -7.632812 6.828125 -7.90625 C 6.460938 -8.1875 6.023438 -8.328125 5.515625 -8.328125 C 5.015625 -8.328125 4.582031 -8.1875 4.21875 -7.90625 C 3.863281 -7.632812 3.613281 -7.25 3.46875 -6.75 C 3.34375 -6.289062 3.28125 -5.734375 3.28125 -5.078125 C 3.28125 -4.429688 3.34375 -3.878906 3.46875 -3.421875 C 3.613281 -2.910156 3.867188 -2.515625 4.234375 -2.234375 C 4.597656 -1.960938 5.039062 -1.828125 5.5625 -1.828125 Z M 5.5625 -1.828125 "/></g></g></g><g fill="#8f24b5" fill-opacity="1"><g transform="translate(217.853852, 284.220099)"><g><path d="M 7.453125 -9.828125 C 7.453125 -10.035156 7.554688 -10.140625 7.765625 -10.140625 L 9.4375 -10.140625 C 9.644531 -10.140625 9.75 -10.035156 9.75 -9.828125 L 9.75 -0.671875 C 9.75 0.984375 9.269531 2.164062 8.3125 2.875 C 7.363281 3.59375 6.125 3.953125 4.59375 3.953125 C 4.21875 3.953125 3.835938 3.929688 3.453125 3.890625 C 3.265625 3.878906 3.171875 3.757812 3.171875 3.53125 L 3.234375 2.0625 C 3.234375 1.96875 3.265625 1.894531 3.328125 1.84375 C 3.398438 1.789062 3.488281 1.769531 3.59375 1.78125 C 4.039062 1.8125 4.351562 1.828125 4.53125 1.828125 C 5.53125 1.828125 6.265625 1.628906 6.734375 1.234375 C 7.210938 0.847656 7.453125 0.191406 7.453125 -0.734375 L 7.453125 -0.859375 C 7.453125 -0.910156 7.4375 -0.941406 7.40625 -0.953125 C 7.382812 -0.960938 7.351562 -0.945312 7.3125 -0.90625 C 6.769531 -0.34375 6.007812 -0.0625 5.03125 -0.0625 C 4.164062 -0.0625 3.375 -0.28125 2.65625 -0.71875 C 1.945312 -1.15625 1.453125 -1.820312 1.171875 -2.71875 C 0.992188 -3.34375 0.90625 -4.144531 0.90625 -5.125 C 0.90625 -6.21875 1.015625 -7.054688 1.234375 -7.640625 C 1.492188 -8.453125 1.945312 -9.097656 2.59375 -9.578125 C 3.25 -10.066406 4.015625 -10.3125 4.890625 -10.3125 C 5.910156 -10.3125 6.71875 -10.007812 7.3125 -9.40625 C 7.351562 -9.375 7.382812 -9.363281 7.40625 -9.375 C 7.4375 -9.382812 7.453125 -9.414062 7.453125 -9.46875 Z M 7.3125 -3.375 C 7.363281 -3.570312 7.398438 -3.785156 7.421875 -4.015625 C 7.441406 -4.253906 7.453125 -4.628906 7.453125 -5.140625 C 7.453125 -5.640625 7.441406 -6 7.421875 -6.21875 C 7.398438 -6.4375 7.351562 -6.65625 7.28125 -6.875 C 7.175781 -7.3125 6.960938 -7.660156 6.640625 -7.921875 C 6.316406 -8.191406 5.90625 -8.328125 5.40625 -8.328125 C 4.925781 -8.328125 4.519531 -8.191406 4.1875 -7.921875 C 3.851562 -7.660156 3.613281 -7.3125 3.46875 -6.875 C 3.3125 -6.5 3.234375 -5.914062 3.234375 -5.125 C 3.234375 -4.300781 3.300781 -3.722656 3.4375 -3.390625 C 3.570312 -2.972656 3.8125 -2.628906 4.15625 -2.359375 C 4.507812 -2.085938 4.929688 -1.953125 5.421875 -1.953125 C 5.941406 -1.953125 6.359375 -2.082031 6.671875 -2.34375 C 6.992188 -2.601562 7.207031 -2.945312 7.3125 -3.375 Z M 7.3125 -3.375 "/></g></g></g><g fill="#8f24b5" fill-opacity="1"><g transform="translate(228.752357, 284.220099)"><g><path d="M 1.03125 3.953125 C 0.9375 3.953125 0.890625 3.847656 0.890625 3.640625 L 0.890625 2.359375 C 0.890625 2.148438 0.9375 2.046875 1.03125 2.046875 L 1.15625 2.046875 C 1.695312 2.046875 2.117188 1.992188 2.421875 1.890625 C 2.722656 1.796875 2.96875 1.609375 3.15625 1.328125 C 3.351562 1.046875 3.53125 0.628906 3.6875 0.078125 C 3.71875 0.015625 3.71875 -0.0351562 3.6875 -0.078125 L 0.453125 -9.796875 C 0.441406 -9.828125 0.4375 -9.867188 0.4375 -9.921875 C 0.4375 -10.066406 0.53125 -10.140625 0.71875 -10.140625 L 2.5 -10.140625 C 2.6875 -10.140625 2.804688 -10.054688 2.859375 -9.890625 L 4.8125 -3.3125 C 4.832031 -3.257812 4.859375 -3.234375 4.890625 -3.234375 C 4.921875 -3.234375 4.945312 -3.257812 4.96875 -3.3125 L 6.84375 -9.890625 C 6.90625 -10.054688 7.023438 -10.140625 7.203125 -10.140625 L 9 -10.140625 C 9.113281 -10.140625 9.191406 -10.109375 9.234375 -10.046875 C 9.285156 -9.992188 9.289062 -9.910156 9.25 -9.796875 L 5.78125 0.5625 C 5.445312 1.5 5.117188 2.195312 4.796875 2.65625 C 4.484375 3.125 4.050781 3.457031 3.5 3.65625 C 2.957031 3.851562 2.179688 3.953125 1.171875 3.953125 Z M 1.03125 3.953125 "/></g></g></g><g clip-path="url(#059b3841a3)"><g transform="matrix(1, 0, 0, 1, 209, 112)"><g clip-path="url(#110abcf438)"><g clip-path="url(#44f2d5bb85)"><path fill="#062446" d="M 8.359375 75.417969 L 45.652344 38.125 L 8.097656 0.570312 L 0.460938 8.207031 L 30.378906 38.125 L 0.722656 67.78125 L 8.359375 75.417969 " fill-opacity="1" fill-rule="nonzero"/></g></g></g></g></svg>